<svg xmlns="http://www.w3.org/2000/svg" width="30" height="30" viewBox="0 0 30 30" fill="none">
  <path
    d="M17.4257 0C19.9292 0 22.1232 0.520516 24.0079 1.56127C25.8925 2.60204 27.3552 4.06471 28.3959 5.94933C28.6867 6.46801 28.9368 7.00757 29.1463 7.56796L24.7085 10.1701C24.3757 8.75671 23.7347 7.57469 22.7844 6.62438C21.3498 5.13355 19.3385 4.38806 16.7507 4.38806C14.4441 4.38806 12.3906 4.97884 10.5904 6.16025C8.81831 7.31353 7.44002 8.87481 6.45552 10.8438C5.47105 12.8128 4.97882 14.9788 4.97882 17.3416C4.97884 19.9012 5.69607 21.9265 7.13057 23.4173C8.59326 24.9081 10.6045 25.6536 13.1643 25.6536C15.4708 25.6536 17.5101 25.0628 19.2822 23.8814C19.7805 23.5544 20.2473 23.1969 20.6831 22.8096L22.7685 26.8784C22.3413 27.1767 21.8969 27.458 21.4343 27.721C18.7902 29.24 15.8084 29.9993 12.4892 29.9993C10.0139 29.9993 7.83397 29.4791 5.94937 28.4383C4.06478 27.3976 2.60204 25.9349 1.56128 24.0503C0.520518 22.1656 0 20.0278 0 17.6368C1.61152e-06 14.2895 0.745509 11.2797 2.23633 8.60749C3.75528 5.90714 5.83684 3.79756 8.48093 2.27861C11.1531 0.759669 14.1347 8.55005e-06 17.4257 0ZM29.8592 10.5737C29.9245 11.1392 29.9572 11.7215 29.9572 12.3205C29.9572 15.6678 29.1976 18.6918 27.6786 21.3921C26.9529 22.7065 26.0868 23.8806 25.0812 24.9151L22.759 20.3843C23.0117 19.9934 23.2453 19.584 23.4594 19.1558C24.357 17.3856 24.8563 15.4829 24.9583 13.4475L29.8592 10.5737Z"
    fill="black" />
</svg>
